# xmcd CD database file
#
# Track frame offsets:
#	150
#	16565
#	48289
#	56089
#	73040
#	90705
#	103642
#	123357
#	138020
#	152507
#	161845
#
# Disc length: 2470 seconds
#
# Revision: 0
# Processed by: cddbd v1.5.2PL0 Copyright (c) Steve Scherf et al.
# Submitted via: CDex 1.51
#
DISCID=8409a40b
DTITLE=Octobop - Octobop
DYEAR=1999
DGENRE=Jazz
TTITLE0=Falling In Love With Love
TTITLE1=Four Others
TTITLE2=Too Close For Comfort
TTITLE3=Relaxin'
TTITLE4=42nd Street
TTITLE5=Flight Of The Foo Birds - Would He
TTITLE6=Godchild
TTITLE7=Cheek To Cheek
TTITLE8=Out Of Somewhere
TTITLE9=Coop de Graas
TTITLE10=Bernie's Tune
EXTD=YEAR: 1999
EXTT0=
EXTT1=
EXTT2=
EXTT3=
EXTT4=
EXTT5=
EXTT6=
EXTT7=
EXTT8=
EXTT9=
EXTT10=
PLAYORDER=
